<?xml version="1.0" encoding="utf-8"?>
<!-- Generator: Adobe Illustrator 20.1.0, SVG Export Plug-In . SVG Version: 6.00 Build 0)  -->
<svg version="1.1" id="Layer_1" xmlns="http://www.w3.org/2000/svg" xmlns:xlink="http://www.w3.org/1999/xlink" x="0px" y="0px"
	 viewBox="0 0 488.2 488.2" style="enable-background:new 0 0 488.2 488.2;" xml:space="preserve">
<style type="text/css">
	.st0{fill:#2A3332;}
	.st1{fill:#141616;}
	.st2{fill:#121C1B;}
	.st3{fill:url(#SVGID_1_);}
</style>
<path d="M244.1,0.2c-134.8,0-244,109.2-244,244s109.2,244,244,244s244-109.2,244-244S378.9,0.2,244.1,0.2z M244.1,264.1
	c-11,0-20-9-20-20c0-11,9-20,20-20c11,0,20,9,20,20C264.1,255.1,255.1,264.1,244.1,264.1z"/>
<path class="st0" d="M244.1,224.1c-11,0-20,9-20,20c0,11,9,20,20,20c11,0,20-9,20-20C264.1,233.1,255.1,224.1,244.1,224.1z
	 M244.1,261.6c-9.7,0-17.5-7.8-17.5-17.5c0-9.7,7.8-17.5,17.5-17.5c9.7,0,17.5,7.8,17.5,17.5C261.6,253.8,253.8,261.6,244.1,261.6z"
	/>
<path class="st1" d="M416.1,71.4c-95.2-95.2-249.6-95.2-344.8,0L229.9,230c3.6-3.6,8.6-5.9,14.2-5.9c11,0,20,9,20,20
	c0,5.5-2.3,10.6-5.9,14.2l157.9,157.9C511.3,321,511.3,166.6,416.1,71.4z"/>
<path class="st2" d="M264.1,244.1c0-11-9-20-20-20c-5.5,0-10.6,2.3-14.2,5.9l1.8,1.8c3.2-3.2,7.6-5.2,12.4-5.2
	c9.7,0,17.5,7.8,17.5,17.5c0,4.9-2,9.3-5.2,12.4l1.8,1.8C261.8,254.7,264.1,249.6,264.1,244.1z"/>
<linearGradient id="SVGID_1_" gradientUnits="userSpaceOnUse" x1="139.3" y1="244.2" x2="348.9001" y2="244.2">
	<stop  offset="0" style="stop-color:#BE7100"/>
	<stop  offset="1" style="stop-color:#FF3AFF"/>
</linearGradient>
<path class="st3" d="M319,170.9c-40.5-41.4-106.8-42.1-148.2-1.7c-41.4,40.5-42.1,106.8-1.7,148.2c40.5,41.4,106.8,42.1,148.2,1.7
	C358.7,278.7,359.5,212.3,319,170.9z M244.1,264.1c-11,0-20-9-20-20c0-11,9-20,20-20c11,0,20,9,20,20
	C264.1,255.1,255.1,264.1,244.1,264.1z"/>
</svg>
